<svg width="735" height="794" viewBox="0 0 735 794" fill="none" xmlns="http://www.w3.org/2000/svg">
<path d="M0 370.814V785.5C0 789.918 3.58172 793.5 7.99999 793.5H201.5C205.918 793.5 209.5 789.918 209.5 785.5V602.314C209.5 595.186 218.117 591.617 223.157 596.657L361.843 735.343C364.967 738.467 370.033 738.467 373.157 735.343L511.843 596.657C516.883 591.617 525.5 595.186 525.5 602.314V785.5C525.5 789.918 529.082 793.5 533.5 793.5H727C731.418 793.5 735 789.918 735 785.5V370.814C735 368.692 734.157 366.657 732.657 365.157L373.157 5.65685C370.033 2.53266 364.967 2.53265 361.843 5.65685L2.34315 365.157C0.842855 366.657 0 368.692 0 370.814Z" fill="black"/>
<path d="M363.343 221.657L222.657 362.343C219.533 365.467 219.533 370.533 222.657 373.657L363.343 514.343C366.467 517.467 371.533 517.467 374.657 514.343L515.343 373.657C518.467 370.533 518.467 365.467 515.343 362.343L374.657 221.657C371.533 218.533 366.467 218.533 363.343 221.657Z" fill="white"/>
</svg>
